<mxfile host="app.diagrams.net" modified="2023-12-11T11:40:06.820Z" agent="Mozilla/5.0 (Macintosh; Intel Mac OS X 10_15_7) AppleWebKit/537.36 (KHTML, like Gecko) Chrome/119.0.0.0 Safari/537.36" etag="CabgH1PUREeeo4u_1K0y" version="22.1.7" type="github">
  <diagram name="ページ1" id="fHjQXbyhqwzbF0dJYVGf">
    <mxGraphModel dx="742" dy="470" grid="1" gridSize="10" guides="1" tooltips="1" connect="1" arrows="1" fold="1" page="1" pageScale="1" pageWidth="827" pageHeight="1169" math="0" shadow="0">
      <root>
        <mxCell id="0" />
        <mxCell id="1" parent="0" />
        <mxCell id="KMRQJjXGumpYtsFhCQ9W-11" value="" style="edgeStyle=orthogonalEdgeStyle;rounded=0;orthogonalLoop=1;jettySize=auto;html=1;" parent="1" target="KMRQJjXGumpYtsFhCQ9W-15" edge="1">
          <mxGeometry relative="1" as="geometry">
            <mxPoint x="352" y="730" as="sourcePoint" />
          </mxGeometry>
        </mxCell>
        <mxCell id="KMRQJjXGumpYtsFhCQ9W-15" value="AE" style="whiteSpace=wrap;html=1;rounded=1;" parent="1" vertex="1">
          <mxGeometry x="390" y="700" width="75" height="60" as="geometry" />
        </mxCell>
        <mxCell id="KMRQJjXGumpYtsFhCQ9W-16" value="異常スコアを算出" style="rounded=0;whiteSpace=wrap;html=1;" parent="1" vertex="1">
          <mxGeometry x="493" y="700" width="120" height="60" as="geometry" />
        </mxCell>
        <mxCell id="KMRQJjXGumpYtsFhCQ9W-19" value="" style="endArrow=classic;html=1;rounded=0;exitX=1;exitY=0.5;exitDx=0;exitDy=0;entryX=0;entryY=0.5;entryDx=0;entryDy=0;" parent="1" source="KMRQJjXGumpYtsFhCQ9W-15" target="KMRQJjXGumpYtsFhCQ9W-16" edge="1">
          <mxGeometry width="50" height="50" relative="1" as="geometry">
            <mxPoint x="478" y="740" as="sourcePoint" />
            <mxPoint x="503" y="740" as="targetPoint" />
          </mxGeometry>
        </mxCell>
      </root>
    </mxGraphModel>
  </diagram>
</mxfile>
